<svg width="21" height="21" viewBox="0 0 21 21" fill="none" xmlns="http://www.w3.org/2000/svg">
<path d="M19.9239 20.5519H15.6817C15.3348 20.5519 15.0537 20.2538 15.0537 19.8859V17.6948C15.0537 17.3269 15.3348 17.0288 15.6817 17.0288H19.9239C20.2708 17.0288 20.5519 17.3269 20.5519 17.6948V19.8859C20.5519 20.2538 20.2708 20.5519 19.9239 20.5519Z" fill="white"/>
<path d="M19.9239 16.2951H15.6817C15.3348 16.2951 15.0537 15.997 15.0537 15.6291V13.4379C15.0537 13.0701 15.3348 12.772 15.6817 12.772H19.9239C20.2708 12.772 20.5519 13.0701 20.5519 13.4379V15.6291C20.5519 15.997 20.2708 16.2951 19.9239 16.2951Z" fill="white"/>
<path d="M19.9239 12.0378H15.6817C15.3348 12.0378 15.0537 11.7396 15.0537 11.3718V9.18062C15.0537 8.81276 15.3348 8.51465 15.6817 8.51465H19.9239C20.2708 8.51465 20.5519 8.81276 20.5519 9.18062V11.3718C20.5519 11.7396 20.2708 12.0378 19.9239 12.0378Z" fill="white"/>
<path d="M19.9239 7.78043H15.6817C15.3348 7.78043 15.0537 7.48232 15.0537 7.11446V4.9233C15.0537 4.55544 15.3348 4.25732 15.6817 4.25732H19.9239C20.2708 4.25732 20.5519 4.55544 20.5519 4.9233V7.11446C20.5519 7.48232 20.2708 7.78043 19.9239 7.78043Z" fill="white"/>
<path d="M19.9239 3.52311H15.6817C15.3348 3.52311 15.0537 3.225 15.0537 2.85714V0.665971C15.0537 0.298113 15.3348 0 15.6817 0H19.9239C20.2708 0 20.5519 0.298113 20.5519 0.665971V2.85714C20.5519 3.225 20.2708 3.52311 19.9239 3.52311Z" fill="white"/>
<path d="M12.3968 20.5519H8.15435C7.80747 20.5519 7.52637 20.2538 7.52637 19.8859V17.6948C7.52637 17.3269 7.80747 17.0288 8.15435 17.0288H12.3965C12.7434 17.0288 13.0245 17.3269 13.0245 17.6948V19.8859C13.0247 20.2538 12.7434 20.5519 12.3968 20.5519Z" fill="white"/>
<path d="M12.3968 16.2951H8.15435C7.80747 16.2951 7.52637 15.997 7.52637 15.6291V13.4379C7.52637 13.0701 7.80747 12.772 8.15435 12.772H12.3965C12.7434 12.772 13.0245 13.0701 13.0245 13.4379V15.6291C13.0247 15.997 12.7434 16.2951 12.3968 16.2951Z" fill="white"/>
<path d="M12.3968 12.0378H8.15435C7.80747 12.0378 7.52637 11.7396 7.52637 11.3718V9.18062C7.52637 8.81276 7.80747 8.51465 8.15435 8.51465H12.3965C12.7434 8.51465 13.0245 8.81276 13.0245 9.18062V11.3718C13.0247 11.7396 12.7434 12.0378 12.3968 12.0378Z" fill="white"/>
<path d="M4.87017 20.5519H0.627981C0.281107 20.5519 0 20.2538 0 19.8859V17.6948C0 17.3269 0.281107 17.0288 0.627981 17.0288H4.87017C5.21704 17.0288 5.49815 17.3269 5.49815 17.6948V19.8859C5.49815 20.2538 5.21704 20.5519 4.87017 20.5519Z" fill="white"/>
</svg>
