<svg width="21" height="21" viewBox="0 0 21 21" fill="none" xmlns="http://www.w3.org/2000/svg">
<path d="M14.3848 20.8623H6.16705C5.96062 20.8623 5.79346 20.6152 5.79346 20.3108V14.8478C5.79346 12.5683 7.04509 10.7207 8.58926 10.7207H11.9626C13.5068 10.7207 14.7584 12.5683 14.7584 14.8478V20.3108C14.7584 20.6152 14.5912 20.8623 14.3848 20.8623Z" fill="white"/>
<path d="M10.3974 8.95H10.1549C8.84481 8.95 7.78271 7.38216 7.78271 5.44824V3.81231C7.78271 1.87838 8.84481 0.310547 10.1549 0.310547H10.3974C11.7075 0.310547 12.7696 1.87838 12.7696 3.81231V5.44824C12.7696 7.38216 11.7075 8.95 10.3974 8.95Z" fill="white"/>
<path d="M17.0253 7.29706H16.8291C15.7695 7.29706 14.9106 6.02924 14.9106 4.46511V3.14201C14.9106 1.57788 15.7695 0.310059 16.8291 0.310059H17.0253C18.0848 0.310059 18.9437 1.57788 18.9437 3.14201V4.46511C18.9437 6.02924 18.0848 7.29706 17.0253 7.29706Z" fill="white"/>
<path d="M3.52733 7.29706H3.72349C4.78308 7.29706 5.64194 6.02924 5.64194 4.46511V3.14201C5.64194 1.57788 4.78308 0.310059 3.72349 0.310059H3.52733C2.46775 0.310059 1.60889 1.57788 1.60889 3.14201V4.46511C1.60889 6.02924 2.46775 7.29706 3.52733 7.29706Z" fill="white"/>
<path d="M14.3848 20.8623H6.16705C5.96062 20.8623 5.79346 20.6152 5.79346 20.3108V14.8478C5.79346 12.5683 7.04509 10.7207 8.58926 10.7207H11.9626C13.5068 10.7207 14.7584 12.5683 14.7584 14.8478V20.3108C14.7584 20.6152 14.5912 20.8623 14.3848 20.8623Z" fill="white"/>
<path d="M18.2915 8.66162H18.1328H15.5633H15.4046C14.7686 8.66162 14.195 9.05063 13.7844 9.67493C13.6645 9.8573 13.7063 10.16 13.8586 10.2783C14.9253 11.1066 15.6533 12.7567 15.6533 14.6592V16.3117C15.6533 16.6164 15.8207 16.8632 16.0269 16.8632H16.2324H17.4635H20.1787C20.3851 16.8632 20.5523 16.6161 20.5523 16.3117V11.9992C20.5525 10.156 19.5402 8.66162 18.2915 8.66162Z" fill="white"/>
<path d="M4.89899 14.6592C4.89899 12.7563 5.627 11.1066 6.69367 10.2783C6.84599 10.16 6.88778 9.8573 6.76789 9.67493C6.3573 9.05063 5.78366 8.66162 5.14768 8.66162H4.98897H2.4197H2.26099C1.01232 8.66162 0 10.156 0 11.9992V16.3117C0 16.6164 0.167387 16.8632 0.373596 16.8632H3.08879H4.31987H4.5254C4.73183 16.8632 4.89899 16.6161 4.89899 16.3117V14.6592Z" fill="white"/>
</svg>
