<svg width="21" height="22" viewBox="0 0 21 22" fill="none" xmlns="http://www.w3.org/2000/svg">
<path d="M19.9905 0.619629H0.561633C0.251612 0.619629 0 0.824237 0 1.07634V20.715C0 20.9671 0.251612 21.1717 0.561633 21.1717H4.56271C4.77865 21.1717 4.97551 21.071 5.06902 20.9126C5.34029 20.4529 5.89658 20.1672 6.52056 20.1672C7.14453 20.1672 7.70083 20.4529 7.9721 20.9126C8.06533 21.071 8.26246 21.1717 8.47841 21.1717H12.0737C12.2899 21.1717 12.4868 21.071 12.5803 20.9126C12.8513 20.4529 13.4073 20.1672 14.0316 20.1672C14.6558 20.1672 15.2118 20.4529 15.4834 20.9126C15.5766 21.071 15.7732 21.1717 15.9894 21.1717H19.9905C20.3005 21.1717 20.5521 20.9671 20.5521 20.715V1.07634C20.5521 0.824237 20.3005 0.619629 19.9905 0.619629ZM17.3317 15.9757H11.6924C11.3242 15.9757 11.0254 15.733 11.0254 15.4334C11.0254 15.1338 11.3239 14.891 11.6924 14.891H17.3317C17.6999 14.891 17.9986 15.1338 17.9986 15.4334C17.9986 15.733 17.6999 15.9757 17.3317 15.9757ZM17.3317 12.3496H3.2204C2.85225 12.3496 2.55346 12.1069 2.55346 11.8073C2.55346 11.5079 2.85197 11.2649 3.2204 11.2649H17.3317C17.6999 11.2649 17.9986 11.5077 17.9986 11.8073C17.9984 12.1069 17.6999 12.3496 17.3317 12.3496ZM17.3317 8.72378H3.2204C2.85225 8.72378 2.55346 8.48104 2.55346 8.18144C2.55346 7.88206 2.85197 7.63909 3.2204 7.63909H17.3317C17.6999 7.63909 17.9986 7.88183 17.9986 8.18144C17.9984 8.48104 17.6999 8.72378 17.3317 8.72378ZM17.3317 5.09793H3.2204C2.85225 5.09793 2.55346 4.85519 2.55346 4.55559C2.55346 4.25621 2.85197 4.01324 3.2204 4.01324H17.3317C17.6999 4.01324 17.9986 4.25598 17.9986 4.55559C17.9984 4.85519 17.6999 5.09793 17.3317 5.09793Z" fill="white"/>
</svg>
