<svg width="21" height="21" viewBox="0 0 21 21" fill="none" xmlns="http://www.w3.org/2000/svg">
<path d="M9.60993 0.0603717C8.84492 0.209467 8.14673 0.636622 7.84543 1.14053L7.6836 1.40642H6.53332C5.49461 1.40642 5.3717 1.41439 5.20987 1.48695C4.98644 1.58362 4.85801 1.75704 4.85801 1.97051V2.13177H3.73011C3.10485 2.13177 2.43455 2.1519 2.23349 2.17601C1.16137 2.30099 0.256601 2.94183 0.0613521 3.7196C0.0166077 3.88882 4.65084e-05 6.21437 4.65084e-05 11.3568C4.65084e-05 19.393 -0.0109945 19.0506 0.307156 19.5058C0.513736 19.7961 0.994012 20.1507 1.39061 20.3039C2.06643 20.5619 1.57482 20.5497 10.275 20.5497C18.9752 20.5497 18.4836 20.5619 19.1594 20.3039C19.556 20.1509 20.0363 19.7961 20.2428 19.5058C20.5613 19.0504 20.5499 19.393 20.5499 11.3568C20.5499 6.21416 20.5331 3.88882 20.4886 3.7196C20.2931 2.94183 19.3886 2.30099 18.3165 2.17601C18.1154 2.1519 17.4454 2.13177 16.8254 2.13177H15.6917V1.97051C15.6917 1.75683 15.5633 1.58362 15.3398 1.48695C15.178 1.41439 15.0551 1.40642 14.0164 1.40642H12.8661L12.7034 1.14053C12.201 0.306139 10.8215 -0.177425 9.60993 0.0603717ZM10.5815 1.0881C10.8776 1.14053 11.2292 1.35001 11.3634 1.55153C11.4137 1.62807 11.4808 1.80548 11.5029 1.94241C11.5421 2.13596 11.5865 2.2125 11.7263 2.30917L11.8939 2.43415L13.0666 2.44631L14.2392 2.45847V3.00264V3.54261H10.2744H6.30959V3.00264V2.45847L7.47673 2.44631L8.64938 2.43415L8.81703 2.31735C8.92308 2.24479 9.00123 2.13994 9.01809 2.05544C9.15203 1.46304 9.35309 1.24936 9.92837 1.10026C10.1852 1.03568 10.2744 1.03169 10.5815 1.0881ZM4.85772 3.82864C4.85772 4.30822 4.93036 4.42921 5.2764 4.55C5.49984 4.62654 5.6393 4.63052 10.2741 4.63052C14.9592 4.63052 15.0429 4.63052 15.2774 4.55C15.6124 4.4332 15.6905 4.28809 15.6905 3.80851V3.42162H16.9134C18.0861 3.42162 18.1364 3.4256 18.3206 3.5143C18.4211 3.56274 18.5664 3.66738 18.6332 3.73994L18.7616 3.87687V11.3289C18.7616 19.6392 18.795 18.9581 18.3764 19.1636L18.1753 19.2603H10.2744H2.37295L2.1719 19.1636C1.75322 18.9581 1.78663 19.6392 1.78663 11.3289V3.87687L1.91505 3.73994C1.98217 3.66738 2.12715 3.56253 2.22768 3.5143C2.41189 3.4256 2.46215 3.42162 3.63481 3.42162H4.85772V3.82864V3.82864Z" fill="white"/>
<path d="M7.05237 5.88805C6.99107 5.94047 6.63369 6.27494 6.25946 6.63373C5.88524 6.99651 5.57261 7.29071 5.55576 7.29071C5.54472 7.29071 5.38259 7.14959 5.19838 6.97239C5.01417 6.79897 4.82416 6.64589 4.77389 6.62975C4.3494 6.51294 3.96965 6.78283 4.15967 7.06088C4.33284 7.31084 5.27102 8.15299 5.42181 8.18528C5.70655 8.25385 5.82945 8.16914 6.79001 7.24227C7.30922 6.75053 7.7616 6.29926 7.80082 6.23866C7.89002 6.11368 7.80634 5.90021 7.65003 5.83961C7.46582 5.76705 7.17527 5.79138 7.05237 5.88805Z" fill="white"/>
<path d="M9.06276 6.8068C8.61038 7.00434 8.60486 7.49188 9.05724 7.6934C9.23593 7.76994 9.33094 7.77393 12.6255 7.77393H16.0095L16.1992 7.68124C16.3221 7.62085 16.4171 7.52816 16.4729 7.41933C16.5455 7.27023 16.5455 7.22997 16.4729 7.08088C16.4171 6.97204 16.3221 6.87936 16.1992 6.81896L16.0095 6.72628H12.6255C9.36987 6.72607 9.23593 6.73026 9.06276 6.8068Z" fill="white"/>
<path d="M7.14191 8.81777C7.05823 8.86201 6.67296 9.20864 6.27636 9.59155C5.59503 10.2485 5.55609 10.2768 5.47794 10.2043C5.42767 10.16 5.27136 10.0109 5.12056 9.8738C4.97529 9.73666 4.79108 9.6077 4.7074 9.58358C4.52319 9.53514 4.26635 9.59973 4.17686 9.72072C4.04844 9.89813 4.11556 10.0189 4.63477 10.5228C5.24346 11.1112 5.3161 11.1597 5.55609 11.1597C5.65662 11.1597 5.79057 11.1274 5.85216 11.0871C5.91347 11.0508 6.3827 10.6115 6.90191 10.1118C7.66693 9.37032 7.8401 9.18075 7.8401 9.07192C7.8398 8.81378 7.4156 8.6607 7.14191 8.81777Z" fill="white"/>
<path d="M9.02376 9.79349C8.58823 10.0395 8.63298 10.4989 9.10744 10.6843C9.28613 10.7529 9.50956 10.7568 12.6199 10.7568C15.7302 10.7568 15.9536 10.7529 16.1323 10.6843C16.6071 10.4989 16.6515 10.0395 16.216 9.79349C16.0707 9.70877 16.0318 9.70877 12.6199 9.70877C9.20797 9.70898 9.16904 9.70898 9.02376 9.79349Z" fill="white"/>
<path d="M7.21992 11.6837C7.15862 11.7038 6.7565 12.0504 6.33201 12.4535L5.56147 13.187L5.4499 13.0863C5.38279 13.0339 5.21543 12.8768 5.07016 12.7397C4.81883 12.5059 4.78542 12.4897 4.57884 12.4897C4.24384 12.4897 4.09304 12.6187 4.13197 12.8726C4.14883 12.9936 5.24332 14.0211 5.39964 14.0656C5.68989 14.1421 5.77938 14.0818 6.76783 13.1467C7.29285 12.647 7.75628 12.1876 7.79521 12.1272C7.90678 11.9659 7.80073 11.7726 7.56074 11.7C7.46021 11.6677 7.3652 11.6436 7.35968 11.6476C7.34834 11.6474 7.28704 11.6635 7.21992 11.6837Z" fill="white"/>
<path d="M9.10722 12.7232C8.74433 12.8643 8.6101 13.1987 8.82249 13.4445C9.06248 13.7347 8.8559 13.7186 12.6197 13.7186C15.7858 13.7186 16.0147 13.7146 16.1545 13.646C16.6682 13.4043 16.6237 12.9165 16.0708 12.707C15.9479 12.6588 15.3447 12.6506 12.6086 12.6506C9.50382 12.6506 9.28591 12.6546 9.10722 12.7232Z" fill="white"/>
<path d="M7.15873 14.6135C7.1195 14.6257 6.74557 14.9601 6.33212 15.355C5.91896 15.7499 5.57262 16.0764 5.55606 16.0764C5.54502 16.0764 5.3829 15.9352 5.19869 15.758C5.01448 15.5848 4.82446 15.4315 4.7742 15.4154C4.45576 15.3307 4.11523 15.484 4.11523 15.7136C4.11523 15.8667 5.20421 16.9227 5.41631 16.9751C5.69553 17.0437 5.82395 16.955 6.79002 16.0279C7.30923 15.5362 7.76162 15.0849 7.80084 15.0243C7.89004 14.8993 7.80636 14.6858 7.65005 14.6252C7.53848 14.5852 7.28134 14.5772 7.15873 14.6135Z" fill="white"/>
<path d="M9.05705 15.7138C8.72757 15.8589 8.62152 16.1894 8.82258 16.4272C9.04049 16.6891 8.91207 16.6811 12.6366 16.6811H16.0093L16.199 16.5884C16.3219 16.528 16.4169 16.4354 16.4727 16.3265C16.5454 16.1774 16.5454 16.1372 16.4727 15.9881C16.4169 15.8792 16.3219 15.7866 16.199 15.7262L16.0093 15.6335H12.6253C9.33075 15.6333 9.23574 15.6373 9.05705 15.7138Z" fill="white"/>
</svg>
