<svg width="21" height="21" viewBox="0 0 21 21" fill="none" xmlns="http://www.w3.org/2000/svg">
<path d="M8.17659 12.3319H1.03061C0.462335 12.3319 0 11.8693 0 11.3011V1.03061C0 0.462335 0.462335 0 1.03061 0H8.17659C8.74486 0 9.20719 0.462335 9.20719 1.03061V11.3011C9.20742 11.8693 8.74509 12.3319 8.17659 12.3319Z" fill="white"/>
<path d="M8.17659 20.5483H1.03061C0.462335 20.5483 0 20.086 0 19.5175V15.9229C0 15.3547 0.462335 14.8921 1.03061 14.8921H8.17659C8.74486 14.8921 9.20719 15.3544 9.20719 15.9229V19.5175C9.20742 20.086 8.74509 20.5483 8.17659 20.5483Z" fill="white"/>
<path d="M19.5174 20.5482H12.3717C11.8034 20.5482 11.3408 20.0859 11.3408 19.5174V9.24692C11.3408 8.67864 11.8032 8.21631 12.3717 8.21631H19.5176C20.0859 8.21631 20.5485 8.67864 20.5485 9.24692V19.5174C20.5482 20.0859 20.0859 20.5482 19.5174 20.5482Z" fill="white"/>
<path d="M19.5174 5.65601H12.3717C11.8034 5.65601 11.3408 5.19367 11.3408 4.62517V1.03061C11.3408 0.462334 11.8032 0 12.3717 0H19.5176C20.0859 0 20.5482 0.462334 20.5482 1.03061V4.6254C20.5482 5.19367 20.0859 5.65601 19.5174 5.65601Z" fill="white"/>
</svg>
