<svg width="21" height="21" viewBox="0 0 21 21" fill="none" xmlns="http://www.w3.org/2000/svg">
<path d="M20.5521 5.33289V4.3966C20.5521 2.9354 19.4236 1.74652 18.0363 1.74652H15.6475V0.721701C15.6475 0.323081 15.3408 0 14.9624 0C14.584 0 14.2773 0.323081 14.2773 0.721701V1.74676H6.27456V0.721701C6.27456 0.323081 5.96788 0 5.58949 0C5.2111 0 4.90442 0.323081 4.90442 0.721701V1.74676H2.51558C1.12854 1.74676 0 2.93564 0 4.39684V5.33313H20.5521V5.33289Z" fill="white"/>
<path d="M0 6.77588V17.9016C0 19.3628 1.12854 20.5517 2.51558 20.5517H18.0363C19.4236 20.5517 20.5521 19.3631 20.5521 17.9016V6.77588H0ZM5.88681 17.0548H4.20245C3.82406 17.0548 3.51738 16.7317 3.51738 16.3331C3.51738 15.9345 3.82406 15.6114 4.20245 15.6114H5.88681C6.2652 15.6114 6.57188 15.9345 6.57188 16.3331C6.57188 16.7317 6.2652 17.0548 5.88681 17.0548ZM5.88681 13.8399H4.20245C3.82406 13.8399 3.51738 13.5168 3.51738 13.1182C3.51738 12.7196 3.82406 12.3965 4.20245 12.3965H5.88681C6.2652 12.3965 6.57188 12.7196 6.57188 13.1182C6.57188 13.5168 6.2652 13.8399 5.88681 13.8399ZM5.88681 10.6249H4.20245C3.82406 10.6249 3.51738 10.3019 3.51738 9.90325C3.51738 9.50463 3.82406 9.18155 4.20245 9.18155H5.88681C6.2652 9.18155 6.57188 9.50463 6.57188 9.90325C6.57188 10.3019 6.2652 10.6249 5.88681 10.6249ZM11.1182 17.0548H9.4341C9.05572 17.0548 8.74903 16.7317 8.74903 16.3331C8.74903 15.9345 9.05572 15.6114 9.4341 15.6114H11.1182C11.4966 15.6114 11.8033 15.9345 11.8033 16.3331C11.8033 16.7317 11.4966 17.0548 11.1182 17.0548ZM11.1182 13.8399H9.4341C9.05572 13.8399 8.74903 13.5168 8.74903 13.1182C8.74903 12.7196 9.05572 12.3965 9.4341 12.3965H11.1182C11.4966 12.3965 11.8033 12.7196 11.8033 13.1182C11.8033 13.5168 11.4966 13.8399 11.1182 13.8399ZM11.1182 10.6249H9.4341C9.05572 10.6249 8.74903 10.3019 8.74903 9.90325C8.74903 9.50463 9.05572 9.18155 9.4341 9.18155H11.1182C11.4966 9.18155 11.8033 9.50463 11.8033 9.90325C11.8033 10.3019 11.4966 10.6249 11.1182 10.6249ZM16.3497 17.0548H14.6653C14.2869 17.0548 13.9802 16.7317 13.9802 16.3331C13.9802 15.9345 14.2869 15.6114 14.6653 15.6114H16.3497C16.728 15.6114 17.0347 15.9345 17.0347 16.3331C17.0347 16.7317 16.728 17.0548 16.3497 17.0548ZM16.3497 13.8399H14.6653C14.2869 13.8399 13.9802 13.5168 13.9802 13.1182C13.9802 12.7196 14.2869 12.3965 14.6653 12.3965H16.3497C16.728 12.3965 17.0347 12.7196 17.0347 13.1182C17.0347 13.5168 16.728 13.8399 16.3497 13.8399ZM16.3497 10.6249H14.6653C14.2869 10.6249 13.9802 10.3019 13.9802 9.90325C13.9802 9.50463 14.2869 9.18155 14.6653 9.18155H16.3497C16.728 9.18155 17.0347 9.50463 17.0347 9.90325C17.0347 10.3019 16.728 10.6249 16.3497 10.6249Z" fill="white"/>
</svg>
