<svg width="21" height="21" viewBox="0 0 21 21" fill="none" xmlns="http://www.w3.org/2000/svg">
<path d="M0.290428 0.0825399C0.217873 0.128205 0.124978 0.223413 0.0807327 0.297942C0 0.434722 0 0.52993 0 10.2747C0 20.0195 0 20.1147 0.0807327 20.2515C0.125188 20.326 0.217873 20.4214 0.290428 20.4669C0.423584 20.5498 0.512286 20.5498 7.88936 20.5498H15.3551L15.4923 20.4546C15.7827 20.2599 15.7705 20.3676 15.7626 17.484L15.7504 14.9028L15.1979 15.512L14.6411 16.1207V17.7532V19.3899H7.88538H1.12942V10.2747V1.15976H7.88538H14.6413L14.6495 5.24486L14.6617 9.32586L15.2182 8.5138L15.7708 7.70173V4.08901C15.7708 0.0577687 15.7869 0.293851 15.4925 0.0950349L15.3554 -0.000175221H7.88936C0.512286 -0.000390622 0.423584 -0.000389781 0.290428 0.0825399Z" fill="white"/>
<path d="M3.03304 4.04358C2.9523 4.10153 2.94434 4.1431 2.94434 4.44961C2.94434 4.73136 2.9565 4.80589 3.01689 4.85974C3.08546 4.92608 3.48074 4.93018 7.86903 4.93018C12.1284 4.93018 12.6566 4.92178 12.7373 4.86383C12.818 4.80998 12.826 4.76432 12.826 4.47029C12.826 3.9152 13.435 3.97724 7.89314 3.97724C3.6422 3.97724 3.11377 3.98564 3.03304 4.04358Z" fill="white"/>
<path d="M18.7832 4.9299C18.5614 4.98784 18.259 5.15779 18.1015 5.31116C18.0007 5.41067 12.959 12.7565 12.7734 13.0753C12.7249 13.1582 12.0596 16.3195 12.0596 16.4645C12.0596 16.6301 12.1443 16.713 12.2653 16.6758C12.3137 16.6592 12.9873 16.2325 13.7577 15.7269L15.1614 14.8112L17.7708 10.9831C19.2068 8.87434 20.4168 7.06776 20.4652 6.96437C20.5298 6.81531 20.5459 6.68672 20.5499 6.40088C20.5499 6.06119 20.5378 5.99894 20.4207 5.75446C20.1788 5.25322 19.7311 4.94239 19.2108 4.90922C19.0615 4.90103 18.868 4.90922 18.7832 4.9299ZM18.2508 7.61467C18.5169 7.8053 18.7589 7.98343 18.7872 8.01251C18.8235 8.04978 18.4121 8.68371 16.823 11.0163C15.7179 12.6404 14.7982 13.9703 14.782 13.9703C14.7659 13.9744 14.4998 13.7922 14.1932 13.5725L13.6325 13.1705L13.9028 12.7645C15.9517 9.74004 17.6941 7.22091 17.7264 7.24159C17.7467 7.2543 17.9847 7.42425 18.2508 7.61467ZM14.1045 14.4593C14.1932 14.5297 14.1853 14.5338 13.6447 14.886C13.3421 15.0848 13.0881 15.2382 13.0799 15.2298C13.0678 15.2216 13.197 14.5917 13.3301 14.0117C13.3502 13.9206 13.3664 13.9246 13.6851 14.1525C13.8665 14.2852 14.0561 14.422 14.1045 14.4593Z" fill="white"/>
<path d="M3.02485 6.96013C2.91182 7.07624 2.90784 7.6561 3.01667 7.75971C3.08524 7.82605 3.48052 7.83014 7.89313 7.83014C13.431 7.83014 12.826 7.88809 12.826 7.36207C12.826 6.81926 13.431 6.87742 7.88516 6.87742C3.158 6.87742 3.10558 6.87742 3.02485 6.96013Z" fill="white"/>
<path d="M3.08546 9.82717C2.96048 9.9017 2.94434 9.94327 2.94434 10.2746C2.94434 10.4445 2.96048 10.6061 2.97663 10.6308C3.06533 10.7676 3.14208 10.7717 7.89734 10.7717C13.4071 10.7717 12.8262 10.8297 12.8262 10.2746C12.8262 9.71947 13.4071 9.77741 7.88937 9.77741C4.44471 9.78151 3.14606 9.794 3.08546 9.82717Z" fill="white"/>
<path d="M3.22657 12.711C2.98856 12.736 2.94432 12.8105 2.94432 13.1834C2.94432 13.7178 2.70631 13.6724 5.40467 13.6724C8.10303 13.6724 7.86503 13.718 7.86503 13.1834C7.86503 12.6697 8.0829 12.7153 5.53783 12.7069C4.34382 12.7026 3.30311 12.7026 3.22657 12.711Z" fill="white"/>
<path d="M11.3739 14.0035C11.3416 14.0201 11.0874 14.5047 10.8092 15.0766C10.5309 15.6483 10.2969 16.1166 10.2847 16.1166C10.2726 16.1166 10.1598 15.9012 10.0306 15.6401C9.86115 15.2838 9.77245 15.1511 9.69989 15.1223C9.49817 15.0434 9.41345 15.1264 9.16748 15.6401C9.03852 15.9012 8.92549 16.1166 8.91333 16.1166C8.90117 16.1166 8.78835 15.9012 8.65918 15.6401C8.4132 15.1264 8.32849 15.0434 8.12676 15.1223C8.05421 15.1513 7.96551 15.2838 7.79607 15.6401C7.66711 15.9012 7.55408 16.1166 7.54192 16.1166C7.52976 16.1166 7.41694 15.9012 7.28777 15.6401C7.0418 15.1264 6.95708 15.0434 6.75535 15.1223C6.6828 15.1513 6.5941 15.2838 6.42466 15.6401C6.2957 15.9012 6.18268 16.1166 6.17051 16.1166C6.15835 16.1166 6.04554 15.9012 5.91636 15.6401C5.74295 15.2754 5.66221 15.1511 5.58169 15.1223C5.35186 15.0312 5.30741 15.0932 4.60954 16.5103C4.25054 17.2395 3.95613 17.8859 3.95215 17.9479C3.95215 18.1633 4.19414 18.3001 4.38769 18.1924C4.42396 18.1717 4.6821 17.6871 4.96036 17.1152C5.23863 16.5435 5.47265 16.0752 5.4846 16.0752C5.49655 16.0752 5.61377 16.2947 5.74672 16.5642C5.94027 16.9536 6.00884 17.0531 6.08559 17.0613C6.31143 17.0945 6.36385 17.0447 6.60186 16.5517C6.73082 16.2906 6.84385 16.0752 6.85601 16.0752C6.86817 16.0752 6.98518 16.2947 7.11813 16.5642C7.31168 16.9536 7.38025 17.0531 7.45699 17.0613C7.68284 17.0945 7.73526 17.0447 7.97326 16.5517C8.10223 16.2906 8.21525 16.0752 8.22742 16.0752C8.23958 16.0752 8.35659 16.2947 8.48953 16.5642L8.73152 17.0488H8.91312H9.09471L9.3367 16.5642C9.46986 16.2949 9.58687 16.0752 9.59882 16.0752C9.61077 16.0752 9.72799 16.2947 9.86094 16.5642L10.1029 17.0488H10.2845H10.4661L11.1397 15.6817C11.5108 14.9275 11.8132 14.2729 11.8172 14.2191C11.8216 14.0282 11.5515 13.8917 11.3739 14.0035Z" fill="white"/>
</svg>
